<?xml version="1.0" encoding="UTF-8"?>
<!--Generator: Apple Native CoreSVG 175-->
<!DOCTYPE svg
PUBLIC "-//W3C//DTD SVG 1.1//EN"
       "http://www.w3.org/Graphics/SVG/1.1/DTD/svg11.dtd">
<svg version="1.1" xmlns="http://www.w3.org/2000/svg" xmlns:xlink="http://www.w3.org/1999/xlink" width="3300" height="2200">
 <!--glyph: "uni100A8F.medium", point size: 100.0, font version: "17.0d11e1", template writer version: "65.1"-->
 <g id="Notes">
  <rect height="2200" id="artboard" style="fill:white;opacity:1" width="3300" x="0" y="0"/>
  <line style="fill:none;stroke:black;opacity:1;stroke-width:0.5;" x1="263" x2="3036" y1="292" y2="292"/>
  <text style="stroke:none;fill:black;font-family:sans-serif;font-size:13;font-weight:bold;" transform="matrix(1 0 0 1 263 322)">Weight/Scale Variations</text>
  <text style="stroke:none;fill:black;font-family:sans-serif;font-size:13;text-anchor:middle;" transform="matrix(1 0 0 1 559.711 322)">Ultralight</text>
  <text style="stroke:none;fill:black;font-family:sans-serif;font-size:13;text-anchor:middle;" transform="matrix(1 0 0 1 856.422 322)">Thin</text>
  <text style="stroke:none;fill:black;font-family:sans-serif;font-size:13;text-anchor:middle;" transform="matrix(1 0 0 1 1153.13 322)">Light</text>
  <text style="stroke:none;fill:black;font-family:sans-serif;font-size:13;text-anchor:middle;" transform="matrix(1 0 0 1 1449.84 322)">Regular</text>
  <text style="stroke:none;fill:black;font-family:sans-serif;font-size:13;text-anchor:middle;" transform="matrix(1 0 0 1 1746.56 322)">Medium</text>
  <text style="stroke:none;fill:black;font-family:sans-serif;font-size:13;text-anchor:middle;" transform="matrix(1 0 0 1 2043.27 322)">Semibold</text>
  <text style="stroke:none;fill:black;font-family:sans-serif;font-size:13;text-anchor:middle;" transform="matrix(1 0 0 1 2339.98 322)">Bold</text>
  <text style="stroke:none;fill:black;font-family:sans-serif;font-size:13;text-anchor:middle;" transform="matrix(1 0 0 1 2636.69 322)">Heavy</text>
  <text style="stroke:none;fill:black;font-family:sans-serif;font-size:13;text-anchor:middle;" transform="matrix(1 0 0 1 2933.4 322)">Black</text>
  <line style="fill:none;stroke:black;opacity:1;stroke-width:0.5;" x1="263" x2="3036" y1="1903" y2="1903"/>
  <g transform="matrix(1 0 0 1 263 1933)">
   <path d="M9.24805 0.830078Q10.8691 0.830078 12.2949 0.214844Q13.7207-0.400391 14.8096-1.49414Q15.8984-2.58789 16.5186-4.01367Q17.1387-5.43945 17.1387-7.05078Q17.1387-8.66211 16.5186-10.0879Q15.8984-11.5137 14.8047-12.6074Q13.7109-13.7012 12.2852-14.3164Q10.8594-14.9316 9.23828-14.9316Q7.62695-14.9316 6.20117-14.3164Q4.77539-13.7012 3.69141-12.6074Q2.60742-11.5137 1.9873-10.0879Q1.36719-8.66211 1.36719-7.05078Q1.36719-5.43945 1.9873-4.01367Q2.60742-2.58789 3.69629-1.49414Q4.78516-0.400391 6.21094 0.214844Q7.63672 0.830078 9.24805 0.830078ZM9.24805-0.654297Q7.91992-0.654297 6.7627-1.14746Q5.60547-1.64062 4.73145-2.51953Q3.85742-3.39844 3.36426-4.56055Q2.87109-5.72266 2.87109-7.05078Q2.87109-8.37891 3.35938-9.54102Q3.84766-10.7031 4.72168-11.582Q5.5957-12.4609 6.75293-12.9541Q7.91016-13.4473 9.23828-13.4473Q10.5762-13.4473 11.7334-12.9541Q12.8906-12.4609 13.7695-11.582Q14.6484-10.7031 15.1465-9.54102Q15.6445-8.37891 15.6445-7.05078Q15.6445-5.72266 15.1514-4.56055Q14.6582-3.39844 13.7842-2.51953Q12.9102-1.64062 11.748-1.14746Q10.5859-0.654297 9.24805-0.654297ZM5.6543-7.05078Q5.6543-6.72852 5.85938-6.52832Q6.06445-6.32812 6.40625-6.32812L8.51562-6.32812L8.51562-4.20898Q8.51562-3.88672 8.71094-3.67676Q8.90625-3.4668 9.23828-3.4668Q9.56055-3.4668 9.77051-3.67676Q9.98047-3.88672 9.98047-4.20898L9.98047-6.32812L12.0898-6.32812Q12.4219-6.32812 12.627-6.52832Q12.832-6.72852 12.832-7.05078Q12.832-7.38281 12.627-7.58789Q12.4219-7.79297 12.0898-7.79297L9.98047-7.79297L9.98047-9.90234Q9.98047-10.2344 9.77051-10.4443Q9.56055-10.6543 9.23828-10.6543Q8.90625-10.6543 8.71094-10.4443Q8.51562-10.2344 8.51562-9.90234L8.51562-7.79297L6.40625-7.79297Q6.06445-7.79297 5.85938-7.58789Q5.6543-7.38281 5.6543-7.05078Z"/>
  </g>
  <g transform="matrix(1 0 0 1 281.867 1933)">
   <path d="M11.709 2.91016Q13.75 2.91016 15.5518 2.12891Q17.3535 1.34766 18.7305-0.0292969Q20.1074-1.40625 20.8887-3.20801Q21.6699-5.00977 21.6699-7.05078Q21.6699-9.0918 20.8887-10.8936Q20.1074-12.6953 18.7305-14.0723Q17.3535-15.4492 15.5469-16.2305Q13.7402-17.0117 11.6992-17.0117Q9.6582-17.0117 7.85645-16.2305Q6.05469-15.4492 4.68262-14.0723Q3.31055-12.6953 2.5293-10.8936Q1.74805-9.0918 1.74805-7.05078Q1.74805-5.00977 2.5293-3.20801Q3.31055-1.40625 4.6875-0.0292969Q6.06445 1.34766 7.86621 2.12891Q9.66797 2.91016 11.709 2.91016ZM11.709 1.25Q9.98047 1.25 8.47656 0.605469Q6.97266-0.0390625 5.83496-1.17676Q4.69727-2.31445 4.05762-3.81836Q3.41797-5.32227 3.41797-7.05078Q3.41797-8.7793 4.05762-10.2832Q4.69727-11.7871 5.83008-12.9297Q6.96289-14.0723 8.4668-14.7119Q9.9707-15.3516 11.6992-15.3516Q13.4277-15.3516 14.9316-14.7119Q16.4355-14.0723 17.5781-12.9297Q18.7207-11.7871 19.3652-10.2832Q20.0098-8.7793 20.0098-7.05078Q20.0098-5.32227 19.3701-3.81836Q18.7305-2.31445 17.5928-1.17676Q16.4551-0.0390625 14.9463 0.605469Q13.4375 1.25 11.709 1.25ZM7.17773-7.05078Q7.17773-6.69922 7.41211-6.47461Q7.64648-6.25 8.01758-6.25L10.8887-6.25L10.8887-3.36914Q10.8887-2.99805 11.1133-2.76855Q11.3379-2.53906 11.6895-2.53906Q12.0605-2.53906 12.29-2.76855Q12.5195-2.99805 12.5195-3.36914L12.5195-6.25L15.4004-6.25Q15.7715-6.25 16.001-6.47461Q16.2305-6.69922 16.2305-7.05078Q16.2305-7.42188 16.001-7.65137Q15.7715-7.88086 15.4004-7.88086L12.5195-7.88086L12.5195-10.752Q12.5195-11.1328 12.29-11.3623Q12.0605-11.5918 11.6895-11.5918Q11.3379-11.5918 11.1133-11.3574Q10.8887-11.123 10.8887-10.752L10.8887-7.88086L8.01758-7.88086Q7.63672-7.88086 7.40723-7.65137Q7.17773-7.42188 7.17773-7.05078Z"/>
  </g>
  <g transform="matrix(1 0 0 1 305.646 1933)">
   <path d="M14.9707 5.66406Q17.0605 5.66406 18.96 5.01465Q20.8594 4.36523 22.4512 3.19336Q24.043 2.02148 25.2197 0.429688Q26.3965-1.16211 27.0459-3.06641Q27.6953-4.9707 27.6953-7.05078Q27.6953-9.14062 27.0459-11.04Q26.3965-12.9395 25.2197-14.5312Q24.043-16.123 22.4512-17.2998Q20.8594-18.4766 18.9551-19.126Q17.0508-19.7754 14.9609-19.7754Q12.8711-19.7754 10.9717-19.126Q9.07227-18.4766 7.48535-17.2998Q5.89844-16.123 4.72168-14.5312Q3.54492-12.9395 2.90039-11.04Q2.25586-9.14062 2.25586-7.05078Q2.25586-4.9707 2.90527-3.06641Q3.55469-1.16211 4.72656 0.429688Q5.89844 2.02148 7.49023 3.19336Q9.08203 4.36523 10.9814 5.01465Q12.8809 5.66406 14.9707 5.66406ZM14.9707 3.84766Q13.1641 3.84766 11.5283 3.2959Q9.89258 2.74414 8.53516 1.74805Q7.17773 0.751953 6.17676-0.610352Q5.17578-1.97266 4.62891-3.6084Q4.08203-5.24414 4.08203-7.05078Q4.08203-8.86719 4.62891-10.5029Q5.17578-12.1387 6.17188-13.501Q7.16797-14.8633 8.52539-15.8594Q9.88281-16.8555 11.5186-17.4023Q13.1543-17.9492 14.9609-17.9492Q16.7773-17.9492 18.4131-17.4023Q20.0488-16.8555 21.4111-15.8594Q22.7734-14.8633 23.7695-13.501Q24.7656-12.1387 25.3174-10.5029Q25.8691-8.86719 25.8691-7.05078Q25.8789-5.24414 25.332-3.6084Q24.7852-1.97266 23.7842-0.610352Q22.7832 0.751953 21.4209 1.74805Q20.0586 2.74414 18.4229 3.2959Q16.7871 3.84766 14.9707 3.84766ZM9.19922-7.05078Q9.19922-6.66992 9.45801-6.4209Q9.7168-6.17188 10.1172-6.17188L14.0625-6.17188L14.0625-2.2168Q14.0625-1.81641 14.3115-1.55762Q14.5605-1.29883 14.9512-1.29883Q15.3516-1.29883 15.6104-1.55273Q15.8691-1.80664 15.8691-2.2168L15.8691-6.17188L19.8242-6.17188Q20.2246-6.17188 20.4785-6.4209Q20.7324-6.66992 20.7324-7.05078Q20.7324-7.46094 20.4785-7.71484Q20.2246-7.96875 19.8242-7.96875L15.8691-7.96875L15.8691-11.9141Q15.8691-12.3242 15.6104-12.583Q15.3516-12.8418 14.9512-12.8418Q14.5605-12.8418 14.3115-12.583Q14.0625-12.3242 14.0625-11.9141L14.0625-7.96875L10.1172-7.96875Q9.70703-7.96875 9.45312-7.71484Q9.19922-7.46094 9.19922-7.05078Z"/>
  </g>
  <text style="stroke:none;fill:black;font-family:sans-serif;font-size:13;font-weight:bold;" transform="matrix(1 0 0 1 263 1953)">Design Variations</text>
  <text style="stroke:none;fill:black;font-family:sans-serif;font-size:13;" transform="matrix(1 0 0 1 263 1971)">Symbols are supported in up to nine weights and three scales.</text>
  <text style="stroke:none;fill:black;font-family:sans-serif;font-size:13;" transform="matrix(1 0 0 1 263 1989)">For optimal layout with text and other symbols, vertically align</text>
  <text style="stroke:none;fill:black;font-family:sans-serif;font-size:13;" transform="matrix(1 0 0 1 263 2007)">symbols with the adjacent text.</text>
  <line style="fill:none;stroke:#00AEEF;stroke-width:0.5;opacity:1.0;" x1="776" x2="776" y1="1919" y2="1933"/>
  <g transform="matrix(1 0 0 1 776 1933)">
   <path d="M3.31055 0.15625Q3.70117 0.15625 3.91602-0.00976562Q4.13086-0.175781 4.26758-0.585938L5.52734-4.0332L11.2891-4.0332L12.5488-0.585938Q12.6855-0.175781 12.9004-0.00976562Q13.1152 0.15625 13.4961 0.15625Q13.8867 0.15625 14.1162-0.0585938Q14.3457-0.273438 14.3457-0.644531Q14.3457-0.869141 14.2383-1.17188L9.6582-13.3691Q9.48242-13.8184 9.17969-14.043Q8.87695-14.2676 8.4082-14.2676Q7.5-14.2676 7.17773-13.3789L2.59766-1.16211Q2.49023-0.859375 2.49023-0.634766Q2.49023-0.263672 2.70996-0.0537109Q2.92969 0.15625 3.31055 0.15625ZM6.00586-5.51758L8.37891-12.0898L8.42773-12.0898L10.8008-5.51758Z"/>
  </g>
  <line style="fill:none;stroke:#00AEEF;stroke-width:0.5;opacity:1.0;" x1="793.197" x2="793.197" y1="1919" y2="1933"/>
  <text style="stroke:none;fill:black;font-family:sans-serif;font-size:13;font-weight:bold;" transform="matrix(1 0 0 1 776 1953)">Margins</text>
  <text style="stroke:none;fill:black;font-family:sans-serif;font-size:13;" transform="matrix(1 0 0 1 776 1971)">Leading and trailing margins on the left and right side of each symbol</text>
  <text style="stroke:none;fill:black;font-family:sans-serif;font-size:13;" transform="matrix(1 0 0 1 776 1989)">can be adjusted by modifying the x-location of the margin guidelines.</text>
  <text style="stroke:none;fill:black;font-family:sans-serif;font-size:13;" transform="matrix(1 0 0 1 776 2007)">Modifications are automatically applied proportionally to all</text>
  <text style="stroke:none;fill:black;font-family:sans-serif;font-size:13;" transform="matrix(1 0 0 1 776 2025)">scales and weights.</text>
  <g transform="matrix(1 0 0 1 1289 1933)">
   <path d="M2.8418 1.86523L4.54102 3.57422Q5.18555 4.22852 5.90332 4.17969Q6.62109 4.13086 7.31445 3.35938L18.0078-8.42773L17.041-9.4043L6.42578 2.27539Q6.16211 2.57812 5.89355 2.61719Q5.625 2.65625 5.27344 2.30469L4.10156 1.14258Q3.75 0.791016 3.79395 0.522461Q3.83789 0.253906 4.14062-0.0195312L15.6152-10.8203L14.6387-11.7871L3.04688-0.898438Q2.30469-0.214844 2.25098 0.498047Q2.19727 1.21094 2.8418 1.86523ZM9.25781-16.3281Q8.94531-16.0254 8.90625-15.6348Q8.86719-15.2441 9.04297-14.9512Q9.21875-14.6777 9.55566-14.541Q9.89258-14.4043 10.3809-14.5215Q11.4746-14.7754 12.5977-14.7314Q13.7207-14.6875 14.7949-13.9844L14.209-12.5293Q13.9551-11.9043 14.0674-11.4404Q14.1797-10.9766 14.5801-10.5664L16.875-8.25195Q17.2363-7.88086 17.5781-7.82227Q17.9199-7.76367 18.3398-7.8418L19.4043-8.03711L20.0684-7.36328L20.0293-6.80664Q20-6.43555 20.1221-6.12305Q20.2441-5.81055 20.6055-5.44922L21.3672-4.70703Q21.7285-4.3457 22.1533-4.33105Q22.5781-4.31641 22.9297-4.66797L25.8398-7.58789Q26.1914-7.93945 26.1816-8.35449Q26.1719-8.76953 25.8105-9.13086L25.0391-9.89258Q24.6875-10.2539 24.3799-10.3857Q24.0723-10.5176 23.7109-10.4883L23.1348-10.4395L22.4902-11.0742L22.7344-12.1973Q22.832-12.6172 22.6953-12.9834Q22.5586-13.3496 22.1191-13.7891L19.9219-15.9766Q18.6719-17.2168 17.2607-17.8369Q15.8496-18.457 14.4189-18.4814Q12.9883-18.5059 11.665-17.959Q10.3418-17.4121 9.25781-16.3281ZM10.752-15.957Q11.6602-16.6211 12.7002-16.9043Q13.7402-17.1875 14.8047-17.085Q15.8691-16.9824 16.8701-16.5137Q17.8711-16.0449 18.7012-15.2051L21.1328-12.793Q21.3086-12.6172 21.3525-12.4512Q21.3965-12.2852 21.3379-12.0312L21.0156-10.5469L22.5195-9.0625L23.5059-9.12109Q23.6914-9.13086 23.7891-9.09668Q23.8867-9.0625 24.0332-8.91602L24.6094-8.33984L22.168-5.89844L21.5918-6.47461Q21.4453-6.62109 21.4062-6.71875Q21.3672-6.81641 21.377-7.01172L21.4453-7.98828L19.9512-9.47266L18.4277-9.21875Q18.1836-9.16992 18.042-9.2041Q17.9004-9.23828 17.7148-9.41406L15.7129-11.416Q15.5176-11.5918 15.4932-11.7529Q15.4688-11.9141 15.5859-12.1875L16.4648-14.2773Q15.293-15.3711 13.8281-15.791Q12.3633-16.2109 10.8398-15.7617Q10.7227-15.7324 10.6885-15.8057Q10.6543-15.8789 10.752-15.957Z"/>
  </g>
  <text style="stroke:none;fill:black;font-family:sans-serif;font-size:13;font-weight:bold;" transform="matrix(1 0 0 1 1289 1953)">Exporting</text>
  <text style="stroke:none;fill:black;font-family:sans-serif;font-size:13;" transform="matrix(1 0 0 1 1289 1971)">Symbols should be outlined when exporting to ensure the</text>
  <text style="stroke:none;fill:black;font-family:sans-serif;font-size:13;" transform="matrix(1 0 0 1 1289 1989)">design is preserved when submitting to Xcode.</text>
  <text id="template-version" style="stroke:none;fill:black;font-family:sans-serif;font-size:13;text-anchor:end;" transform="matrix(1 0 0 1 3036 1933)">Template v.2.0</text>
  <text style="stroke:none;fill:black;font-family:sans-serif;font-size:13;text-anchor:end;" transform="matrix(1 0 0 1 3036 1951)">Requires Xcode 13 or greater</text>
  <text id="descriptive-name" style="stroke:none;fill:black;font-family:sans-serif;font-size:13;text-anchor:end;" transform="matrix(1 0 0 1 3036 1969)">Generated from terminal.fill</text>
  <text style="stroke:none;fill:black;font-family:sans-serif;font-size:13;text-anchor:end;" transform="matrix(1 0 0 1 3036 1987)">Typeset at 100 points</text>
  <text style="stroke:none;fill:black;font-family:sans-serif;font-size:13;" transform="matrix(1 0 0 1 263 726)">Small</text>
  <text style="stroke:none;fill:black;font-family:sans-serif;font-size:13;" transform="matrix(1 0 0 1 263 1156)">Medium</text>
  <text style="stroke:none;fill:black;font-family:sans-serif;font-size:13;" transform="matrix(1 0 0 1 263 1586)">Large</text>
 </g>
 <g id="Guides">
  <g id="H-reference" style="fill:#27AAE1;stroke:none;" transform="matrix(1 0 0 1 339 696)">
   <path d="M0.976562 0L3.66211 0L29.3457-67.1387L30.0293-67.1387L30.0293-70.459L28.125-70.459ZM11.6699-24.4629L46.9727-24.4629L46.2402-26.709L12.4512-26.709ZM55.127 0L57.7637 0L30.6152-70.459L29.4434-70.459L29.4434-67.1387Z"/>
  </g>
  <line id="Baseline-S" style="fill:none;stroke:#27AAE1;opacity:1;stroke-width:0.5;" x1="263" x2="3036" y1="696" y2="696"/>
  <line id="Capline-S" style="fill:none;stroke:#27AAE1;opacity:1;stroke-width:0.5;" x1="263" x2="3036" y1="625.541" y2="625.541"/>
  <g id="H-reference" style="fill:#27AAE1;stroke:none;" transform="matrix(1 0 0 1 339 1126)">
   <path d="M0.976562 0L3.66211 0L29.3457-67.1387L30.0293-67.1387L30.0293-70.459L28.125-70.459ZM11.6699-24.4629L46.9727-24.4629L46.2402-26.709L12.4512-26.709ZM55.127 0L57.7637 0L30.6152-70.459L29.4434-70.459L29.4434-67.1387Z"/>
  </g>
  <line id="Baseline-M" style="fill:none;stroke:#27AAE1;opacity:1;stroke-width:0.5;" x1="263" x2="3036" y1="1126" y2="1126"/>
  <line id="Capline-M" style="fill:none;stroke:#27AAE1;opacity:1;stroke-width:0.5;" x1="263" x2="3036" y1="1055.54" y2="1055.54"/>
  <g id="H-reference" style="fill:#27AAE1;stroke:none;" transform="matrix(1 0 0 1 339 1556)">
   <path d="M0.976562 0L3.66211 0L29.3457-67.1387L30.0293-67.1387L30.0293-70.459L28.125-70.459ZM11.6699-24.4629L46.9727-24.4629L46.2402-26.709L12.4512-26.709ZM55.127 0L57.7637 0L30.6152-70.459L29.4434-70.459L29.4434-67.1387Z"/>
  </g>
  <line id="Baseline-L" style="fill:none;stroke:#27AAE1;opacity:1;stroke-width:0.5;" x1="263" x2="3036" y1="1556" y2="1556"/>
  <line id="Capline-L" style="fill:none;stroke:#27AAE1;opacity:1;stroke-width:0.5;" x1="263" x2="3036" y1="1485.54" y2="1485.54"/>
  <line id="left-margin" style="fill:none;stroke:#00AEEF;stroke-width:0.5;opacity:1.0;" x1="1379.82" x2="1379.82" y1="1030.79" y2="1150.12"/>
  <line id="right-margin" style="fill:none;stroke:#00AEEF;stroke-width:0.5;opacity:1.0;" x1="1519.86" x2="1519.86" y1="1030.79" y2="1150.12"/>
 </g>
 <g id="Symbols">
  <g id="Black-L" transform="matrix(1 0 0 1 2841.51 1556)">
   <path d="M47.7051-43.1152L59.1797-50.0488L47.6562-57.0801Q45.2637-58.4473 44.5557-60.498Q43.8477-62.5488 44.4336-64.5996Q45.0195-66.6504 46.5576-68.0908Q48.0957-69.5312 50.3174-69.7754Q52.5391-70.0195 55.0781-68.4082L72.9004-57.2754Q75.4883-55.6641 76.3672-52.8809Q77.2461-50.0977 76.3916-47.3389Q75.5371-44.5801 72.9004-42.9199L55.0781-31.6406Q52.5391-30.0293 50.3174-30.2979Q48.0957-30.5664 46.5332-32.0068Q44.9707-33.4473 44.4092-35.498Q43.8477-37.5488 44.5801-39.5996Q45.3125-41.6504 47.7051-43.1152ZM75.7324-33.4473Q75.7324-36.2305 77.6855-38.1348Q79.6387-40.0391 82.4219-40.0391L106.348-40.0391Q109.131-40.0391 111.035-38.1348Q112.939-36.2305 112.939-33.4473Q112.939-30.6641 111.035-28.7109Q109.131-26.7578 106.348-26.7578L82.4219-26.7578Q79.5898-26.7578 77.6611-28.7109Q75.7324-30.6641 75.7324-33.4473ZM39.9902 26.5137L143.799 26.5137Q155.225 26.5137 161.475 20.3125Q167.725 14.1113 167.725 2.68555L167.725-73.0957Q167.725-84.4727 161.475-90.6738Q155.225-96.875 143.799-96.875L39.9902-96.875Q28.5645-96.875 22.3145-90.6738Q16.0645-84.4727 16.0645-73.0957L16.0645 2.68555Q16.0645 14.1113 22.3145 20.3125Q28.5645 26.5137 39.9902 26.5137Z"/>
  </g>
  <g id="Heavy-L" transform="matrix(1 0 0 1 2545.23 1556)">
   <path d="M46.3379-43.457L58.9355-51.0742L46.2891-58.7402Q44.1406-59.9609 43.5059-61.8164Q42.8711-63.6719 43.3838-65.5029Q43.8965-67.334 45.2881-68.6279Q46.6797-69.9219 48.6816-70.1416Q50.6836-70.3613 52.9297-68.8965L70.9961-57.6172Q73.3398-56.1523 74.1455-53.6377Q74.9512-51.123 74.1699-48.584Q73.3887-46.0449 70.9961-44.5801L52.9297-33.1543Q50.6836-31.7383 48.6816-31.958Q46.6797-32.1777 45.2637-33.4717Q43.8477-34.7656 43.3594-36.5967Q42.8711-38.4277 43.5303-40.2832Q44.1895-42.1387 46.3379-43.457ZM74.0723-34.4727Q74.0723-36.9629 75.8057-38.6719Q77.5391-40.3809 80.0293-40.3809L104.102-40.3809Q106.592-40.3809 108.301-38.6719Q110.01-36.9629 110.01-34.4727Q110.01-31.9824 108.301-30.2246Q106.592-28.4668 104.102-28.4668L80.0293-28.4668Q77.4902-28.4668 75.7812-30.2246Q74.0723-31.9824 74.0723-34.4727ZM38.8184 25.4883L144.092 25.4883Q155.029 25.4883 160.938 19.6289Q166.846 13.7695 166.846 2.83203L166.846-73.2422Q166.846-84.1309 160.938-89.9902Q155.029-95.8496 144.092-95.8496L38.8184-95.8496Q27.8809-95.8496 21.9727-90.0146Q16.0645-84.1797 16.0645-73.2422L16.0645 2.83203Q16.0645 13.7695 21.9727 19.6289Q27.8809 25.4883 38.8184 25.4883Z"/>
  </g>
  <g id="Bold-L" transform="matrix(1 0 0 1 2249.01 1556)">
   <path d="M44.8242-43.7988L58.6426-52.1973L44.7754-60.5957Q42.9199-61.6699 42.334-63.2812Q41.748-64.8926 42.2119-66.5039Q42.6758-68.1152 43.8721-69.2383Q45.0684-70.3613 46.8262-70.5322Q48.584-70.7031 50.5859-69.4336L68.8477-58.0078Q70.9473-56.7383 71.6553-54.4922Q72.3633-52.2461 71.6797-50Q70.9961-47.7539 68.8477-46.4355L50.5859-34.9121Q48.584-33.6426 46.8262-33.8379Q45.0684-34.0332 43.8477-35.1562Q42.627-36.2793 42.2119-37.8662Q41.7969-39.4531 42.3584-41.0645Q42.9199-42.6758 44.8242-43.7988ZM72.168-35.5957Q72.168-37.793 73.6816-39.2578Q75.1953-40.7227 77.3438-40.7227L101.562-40.7227Q103.76-40.7227 105.249-39.2578Q106.738-37.793 106.738-35.5957Q106.738-33.4473 105.249-31.9336Q103.76-30.4199 101.562-30.4199L77.3438-30.4199Q75.1465-30.4199 73.6572-31.9336Q72.168-33.4473 72.168-35.5957ZM37.5488 24.3652L144.385 24.3652Q154.834 24.3652 160.352 18.8965Q165.869 13.4277 165.869 3.02734L165.869-73.4375Q165.869-83.7891 160.352-89.2822Q154.834-94.7754 144.385-94.7754L37.5488-94.7754Q27.0996-94.7754 21.582-89.3066Q16.0645-83.8379 16.0645-73.4375L16.0645 3.02734Q16.0645 13.4277 21.582 18.8965Q27.0996 24.3652 37.5488 24.3652Z"/>
  </g>
  <g id="Semibold-L" transform="matrix(1 0 0 1 1952.64 1556)">
   <path d="M43.75-44.043L58.3984-52.9297L43.75-61.8652Q42.041-62.8418 41.5039-64.2822Q40.9668-65.7227 41.3818-67.1631Q41.7969-68.6035 42.8711-69.6289Q43.9453-70.6543 45.5322-70.8008Q47.1191-70.9473 48.9258-69.8242L67.3828-58.252Q69.2383-57.0801 69.8975-55.0293Q70.5566-52.9785 69.9463-50.9277Q69.3359-48.877 67.3828-47.7051L48.9258-36.084Q47.1191-34.9121 45.5322-35.083Q43.9453-35.2539 42.8711-36.2549Q41.7969-37.2559 41.4062-38.6963Q41.0156-40.1367 41.5283-41.6016Q42.041-43.0664 43.75-44.043ZM70.8496-36.377Q70.8496-38.3301 72.1924-39.6484Q73.5352-40.9668 75.4395-40.9668L99.8047-40.9668Q101.758-40.9668 103.101-39.6484Q104.443-38.3301 104.443-36.377Q104.443-34.4727 103.101-33.1055Q101.758-31.7383 99.8047-31.7383L75.4395-31.7383Q73.5352-31.7383 72.1924-33.1055Q70.8496-34.4727 70.8496-36.377ZM36.6211 23.5352L144.58 23.5352Q154.688 23.5352 159.937 18.335Q165.186 13.1348 165.186 3.17383L165.186-73.584Q165.186-83.5449 159.937-88.7695Q154.688-93.9941 144.58-93.9941L36.6211-93.9941Q26.5625-93.9941 21.3135-88.7939Q16.0645-83.5938 16.0645-73.584L16.0645 3.17383Q16.0645 13.1836 21.3135 18.3594Q26.5625 23.5352 36.6211 23.5352Z"/>
  </g>
  <g id="Medium-L" transform="matrix(1 0 0 1 1656.17 1556)">
   <path d="M42.9199-44.2383L58.252-53.5156L42.9199-62.793Q41.3574-63.7207 40.8691-65.0635Q40.3809-66.4062 40.7471-67.7002Q41.1133-68.9941 42.1143-69.9219Q43.1152-70.8496 44.5557-70.9961Q45.9961-71.1426 47.6562-70.0684L66.2598-58.4961Q68.0176-57.373 68.6035-55.4688Q69.1895-53.5645 68.6279-51.6602Q68.0664-49.7559 66.2598-48.6328L47.6562-36.9629Q45.9961-35.9375 44.5557-36.084Q43.1152-36.2305 42.1143-37.1338Q41.1133-38.0371 40.7715-39.3555Q40.4297-40.6738 40.918-41.9922Q41.4062-43.3105 42.9199-44.2383ZM69.873-36.9629Q69.873-38.7695 71.0938-39.9658Q72.3145-41.1621 74.0723-41.1621L98.4863-41.1621Q100.293-41.1621 101.514-39.9658Q102.734-38.7695 102.734-36.9629Q102.734-35.2051 101.514-33.9844Q100.293-32.7637 98.4863-32.7637L74.0723-32.7637Q72.3145-32.7637 71.0938-33.9844Q69.873-35.2051 69.873-36.9629ZM35.9375 22.9492L144.775 22.9492Q154.59 22.9492 159.644 17.9443Q164.697 12.9395 164.697 3.22266L164.697-73.6328Q164.697-83.3496 159.644-88.3789Q154.59-93.4082 144.775-93.4082L35.9375-93.4082Q26.1719-93.4082 21.1182-88.4033Q16.0645-83.3984 16.0645-73.6328L16.0645 3.22266Q16.0645 12.9883 21.1182 17.9688Q26.1719 22.9492 35.9375 22.9492Z"/>
  </g>
  <g id="Regular-L" transform="matrix(1 0 0 1 1359.81 1556)">
   <path d="M41.8945-44.4824L58.0566-54.2969L41.8945-64.0625Q40.5273-64.8926 40.0879-66.0645Q39.6484-67.2363 39.9658-68.3838Q40.2832-69.5312 41.1621-70.3369Q42.041-71.1426 43.3105-71.2646Q44.5801-71.3867 46.0449-70.459L64.7949-58.7402Q66.3574-57.7637 66.8945-56.0547Q67.4316-54.3457 66.9434-52.6123Q66.4551-50.8789 64.7949-49.9023L46.0449-38.1348Q44.5801-37.207 43.3105-37.3291Q42.041-37.4512 41.1621-38.2568Q40.2832-39.0625 39.9902-40.21Q39.6973-41.3574 40.1123-42.5293Q40.5273-43.7012 41.8945-44.4824ZM68.6035-37.7441Q68.6035-39.3066 69.6533-40.3564Q70.7031-41.4062 72.2168-41.4062L96.7773-41.4062Q98.3398-41.4062 99.4141-40.3564Q100.488-39.3066 100.488-37.7441Q100.488-36.2305 99.4141-35.1562Q98.3398-34.082 96.7773-34.082L72.2168-34.082Q70.7031-34.082 69.6533-35.1562Q68.6035-36.2305 68.6035-37.7441ZM35.0586 22.168L144.971 22.168Q154.443 22.168 159.229 17.4316Q164.014 12.6953 164.014 3.36914L164.014-73.7793Q164.014-83.1055 159.229-87.8662Q154.443-92.627 144.971-92.627L35.0586-92.627Q25.6348-92.627 20.8496-87.8906Q16.0645-83.1543 16.0645-73.7793L16.0645 3.36914Q16.0645 12.7441 20.8496 17.4561Q25.6348 22.168 35.0586 22.168Z"/>
  </g>
  <g id="Light-L" transform="matrix(1 0 0 1 1063.53 1556)">
   <path d="M41.3086-44.7754L58.3008-55.0293L41.3086-65.332Q40.1855-66.0156 39.8438-66.9434Q39.502-67.8711 39.7461-68.7744Q39.9902-69.6777 40.6982-70.3369Q41.4062-70.9961 42.4072-71.0693Q43.4082-71.1426 44.5801-70.459L63.4766-58.6426Q64.7461-57.8613 65.1611-56.4697Q65.5762-55.0781 65.21-53.6865Q64.8438-52.2949 63.4766-51.5137L44.5801-39.6973Q43.4082-38.9648 42.4072-39.0625Q41.4062-39.1602 40.6982-39.7949Q39.9902-40.4297 39.7705-41.3574Q39.5508-42.2852 39.8926-43.2129Q40.2344-44.1406 41.3086-44.7754ZM67.1387-38.6719Q67.1387-39.8926 67.9443-40.7227Q68.75-41.5527 69.9707-41.5527L94.3359-41.5527Q95.5566-41.5527 96.4111-40.7227Q97.2656-39.8926 97.2656-38.6719Q97.2656-37.4512 96.4111-36.5967Q95.5566-35.7422 94.3359-35.7422L69.9707-35.7422Q68.75-35.7422 67.9443-36.5967Q67.1387-37.4512 67.1387-38.6719ZM34.0332 21.3379L145.117 21.3379Q154.053 21.3379 158.594 16.7969Q163.135 12.2559 163.135 3.4668L163.135-73.9258Q163.135-82.7148 158.594-87.2559Q154.053-91.7969 145.117-91.7969L34.0332-91.7969Q25.1465-91.7969 20.6055-87.2803Q16.0645-82.7637 16.0645-73.9258L16.0645 3.4668Q16.0645 12.3047 20.6055 16.8213Q25.1465 21.3379 34.0332 21.3379Z"/>
  </g>
  <g id="Thin-L" transform="matrix(1 0 0 1 767.409 1556)">
   <path d="M40.5762-45.166L58.6426-56.0547L40.5762-66.9922Q39.7461-67.4805 39.502-68.1152Q39.2578-68.75 39.4287-69.3359Q39.5996-69.9219 40.0879-70.3369Q40.5762-70.752 41.2354-70.8008Q41.8945-70.8496 42.627-70.4102L61.7188-58.4473Q62.5488-57.959 62.8662-57.0312Q63.1836-56.1035 62.915-55.1514Q62.6465-54.1992 61.7188-53.6621L42.627-41.6992Q41.8945-41.3086 41.2354-41.3574Q40.5762-41.4062 40.1123-41.8457Q39.6484-42.2852 39.502-42.8711Q39.3555-43.457 39.5996-44.0918Q39.8438-44.7266 40.5762-45.166ZM65.1367-39.8438Q65.1367-40.6738 65.6738-41.1865Q66.2109-41.6992 66.9922-41.6992L91.0645-41.6992Q91.8945-41.6992 92.4316-41.1865Q92.9688-40.6738 92.9688-39.8438Q92.9688-39.0625 92.4316-38.5254Q91.8945-37.9883 91.0645-37.9883L66.9922-37.9883Q66.2109-37.9883 65.6738-38.5254Q65.1367-39.0625 65.1367-39.8438ZM32.666 20.2148L145.312 20.2148Q153.516 20.2148 157.739 15.918Q161.963 11.6211 161.963 3.61328L161.963-74.1211Q161.963-82.1777 157.739-86.4502Q153.516-90.7227 145.312-90.7227L32.666-90.7227Q24.5117-90.7227 20.2881-86.499Q16.0645-82.2754 16.0645-74.1211L16.0645 3.61328Q16.0645 11.7676 20.2881 15.9912Q24.5117 20.2148 32.666 20.2148Z"/>
  </g>
  <g id="Ultralight-L" transform="matrix(1 0 0 1 471.015 1556)">
   <path d="M40.1855-45.3613L58.8379-56.543L40.1855-67.8223Q39.5508-68.2617 39.3555-68.7256Q39.1602-69.1895 39.2822-69.6045Q39.4043-70.0195 39.7705-70.3369Q40.1367-70.6543 40.625-70.6787Q41.1133-70.7031 41.6504-70.4102L60.8398-58.3984Q61.4746-58.0566 61.6943-57.3242Q61.9141-56.5918 61.7432-55.8838Q61.5723-55.1758 60.8398-54.7852L41.6504-42.7734Q41.1133-42.4805 40.6494-42.5293Q40.1855-42.5781 39.8193-42.8955Q39.4531-43.2129 39.3555-43.6523Q39.2578-44.0918 39.4287-44.5557Q39.5996-45.0195 40.1855-45.3613ZM64.1602-40.4785Q64.1602-41.0645 64.5264-41.4307Q64.8926-41.7969 65.4785-41.7969L89.4043-41.7969Q90.0391-41.7969 90.4053-41.4307Q90.7715-41.0645 90.7715-40.4785Q90.7715-39.8438 90.4053-39.4775Q90.0391-39.1113 89.4043-39.1113L65.4785-39.1113Q64.8926-39.1113 64.5264-39.4775Q64.1602-39.8438 64.1602-40.4785ZM31.9824 19.6289L145.41 19.6289Q153.223 19.6289 157.275 15.4785Q161.328 11.3281 161.328 3.71094L161.328-74.2188Q161.328-81.8848 157.275-86.0352Q153.223-90.1855 145.41-90.1855L31.9824-90.1855Q24.1699-90.1855 20.1172-86.1084Q16.0645-82.0312 16.0645-74.2188L16.0645 3.71094Q16.0645 11.4746 20.1172 15.5518Q24.1699 19.6289 31.9824 19.6289Z"/>
  </g>
  <g id="Black-M" transform="matrix(1 0 0 1 2861.96 1126)">
   <path d="M37.9395-41.1621L46.1426-46.1426L37.8906-51.1719Q35.4492-52.5879 35.1074-54.8096Q34.7656-57.0312 35.9375-58.9355Q37.1094-60.8398 39.2578-61.499Q41.4062-62.1582 43.9941-60.498L57.666-52.002Q59.7656-50.6836 60.4736-48.4375Q61.1816-46.1914 60.498-43.9209Q59.8145-41.6504 57.666-40.332L43.9941-31.6895Q41.4062-30.0293 39.2334-30.6885Q37.0605-31.3477 35.9131-33.2764Q34.7656-35.2051 35.1318-37.4268Q35.498-39.6484 37.9395-41.1621ZM59.668-33.252Q59.668-35.5957 61.2793-37.1582Q62.8906-38.7207 65.1367-38.7207L83.4961-38.7207Q85.8398-38.7207 87.4023-37.1582Q88.9648-35.5957 88.9648-33.252Q88.9648-31.0059 87.4023-29.3701Q85.8398-27.7344 83.4961-27.7344L65.1367-27.7344Q62.8418-27.7344 61.2549-29.3701Q59.668-31.0059 59.668-33.252ZM31.5918 13.2324L111.279 13.2324Q120.312 13.2324 125.366 8.17871Q130.42 3.125 130.42-5.9082L130.42-64.4531Q130.42-73.5352 125.366-78.5645Q120.312-83.5938 111.279-83.5938L31.5918-83.5938Q22.5586-83.5938 17.5049-78.5645Q12.4512-73.5352 12.4512-64.4531L12.4512-5.9082Q12.4512 3.125 17.5049 8.17871Q22.5586 13.2324 31.5918 13.2324Z"/>
  </g>
  <g id="Heavy-M" transform="matrix(1 0 0 1 2565.6 1126)">
   <path d="M36.7188-41.4062L45.8496-46.9727L36.6699-52.5391Q34.4727-53.8086 34.1553-55.835Q33.8379-57.8613 34.8877-59.5703Q35.9375-61.2793 37.8906-61.8896Q39.8438-62.5 42.2363-60.9863L56.1035-52.3438Q58.0078-51.123 58.667-49.0723Q59.3262-47.0215 58.6914-44.9219Q58.0566-42.8223 56.1035-41.6016L42.2363-32.8613Q39.8438-31.3477 37.8906-31.9336Q35.9375-32.5195 34.8877-34.2773Q33.8379-36.0352 34.1797-38.0371Q34.5215-40.0391 36.7188-41.4062ZM58.3496-34.082Q58.3496-36.1816 59.79-37.5977Q61.2305-39.0137 63.2812-39.0137L81.8359-39.0137Q83.9355-39.0137 85.3516-37.5977Q86.7676-36.1816 86.7676-34.082Q86.7676-32.0312 85.3516-30.542Q83.9355-29.0527 81.8359-29.0527L63.2812-29.0527Q61.1816-29.0527 59.7656-30.542Q58.3496-32.0312 58.3496-34.082ZM30.7129 12.4023L111.523 12.4023Q120.215 12.4023 124.976 7.6416Q129.736 2.88086 129.736-5.76172L129.736-64.5996Q129.736-73.291 124.976-78.0273Q120.215-82.7637 111.523-82.7637L30.7129-82.7637Q21.9727-82.7637 17.2119-78.0518Q12.4512-73.3398 12.4512-64.5996L12.4512-5.76172Q12.4512 2.88086 17.2119 7.6416Q21.9727 12.4023 30.7129 12.4023Z"/>
  </g>
  <g id="Bold-M" transform="matrix(1 0 0 1 2269.25 1126)">
   <path d="M35.3516-41.6992L45.5078-47.9004L35.3516-54.0527Q33.3984-55.1758 33.1055-56.9824Q32.8125-58.7891 33.7402-60.3027Q34.668-61.8164 36.4014-62.3535Q38.1348-62.8906 40.2832-61.5234L54.3457-52.7832Q56.0547-51.6602 56.665-49.7803Q57.2754-47.9004 56.7139-46.0205Q56.1523-44.1406 54.3457-43.0176L40.2832-34.1309Q38.1348-32.8125 36.4014-33.3252Q34.668-33.8379 33.7402-35.4004Q32.8125-36.9629 33.1055-38.7451Q33.3984-40.5273 35.3516-41.6992ZM56.8359-34.9609Q56.8359-36.8164 58.1055-38.0859Q59.375-39.3555 61.1816-39.3555L79.9805-39.3555Q81.8359-39.3555 83.0811-38.0859Q84.3262-36.8164 84.3262-34.9609Q84.3262-33.1543 83.0811-31.8604Q81.8359-30.5664 79.9805-30.5664L61.1816-30.5664Q59.375-30.5664 58.1055-31.8604Q56.8359-33.1543 56.8359-34.9609ZM29.6875 11.4746L111.768 11.4746Q120.166 11.4746 124.585 7.05566Q129.004 2.63672 129.004-5.66406L129.004-64.7461Q129.004-73.0469 124.585-77.4658Q120.166-81.8848 111.768-81.8848L29.6875-81.8848Q21.3379-81.8848 16.8945-77.4902Q12.4512-73.0957 12.4512-64.7461L12.4512-5.66406Q12.4512 2.63672 16.8945 7.05566Q21.3379 11.4746 29.6875 11.4746Z"/>
  </g>
  <g id="Semibold-M" transform="matrix(1 0 0 1 1972.81 1126)">
   <path d="M34.4238-41.8945L45.2637-48.4863L34.375-55.0781Q32.6172-56.1035 32.3486-57.7393Q32.0801-59.375 32.9346-60.7666Q33.7891-62.1582 35.376-62.6465Q36.9629-63.1348 38.916-61.9141L53.125-53.0273Q54.6875-52.002 55.249-50.2686Q55.8105-48.5352 55.2979-46.7773Q54.7852-45.0195 53.125-43.9453L38.916-35.0098Q36.9629-33.7891 35.3516-34.2773Q33.7402-34.7656 32.9102-36.1572Q32.0801-37.5488 32.3486-39.1846Q32.6172-40.8203 34.4238-41.8945ZM55.8105-35.5957Q55.8105-37.2559 56.958-38.4033Q58.1055-39.5508 59.7656-39.5508L78.6621-39.5508Q80.3223-39.5508 81.4697-38.4033Q82.6172-37.2559 82.6172-35.5957Q82.6172-33.9355 81.4697-32.7637Q80.3223-31.5918 78.6621-31.5918L59.7656-31.5918Q58.0566-31.5918 56.9336-32.7637Q55.8105-33.9355 55.8105-35.5957ZM29.0039 10.8398L111.963 10.8398Q120.068 10.8398 124.268 6.64062Q128.467 2.44141 128.467-5.51758L128.467-64.8438Q128.467-72.8516 124.268-77.0508Q120.068-81.25 111.963-81.25L29.0039-81.25Q20.8984-81.25 16.6748-77.0752Q12.4512-72.9004 12.4512-64.8438L12.4512-5.51758Q12.4512 2.44141 16.6748 6.64062Q20.8984 10.8398 29.0039 10.8398Z"/>
  </g>
  <g id="Medium-M" transform="matrix(1 0 0 1 1676.29 1126)">
   <path d="M33.6914-42.041L45.1172-48.9746L33.6914-55.8594Q32.0312-56.8359 31.7871-58.3496Q31.543-59.8633 32.3242-61.1572Q33.1055-62.4512 34.5703-62.8906Q36.0352-63.3301 37.8906-62.1582L52.1973-53.2227Q53.6621-52.2949 54.1992-50.6348Q54.7363-48.9746 54.248-47.3389Q53.7598-45.7031 52.1973-44.6777L37.8906-35.6934Q36.0352-34.5703 34.5703-35.0098Q33.1055-35.4492 32.3242-36.7432Q31.543-38.0371 31.7871-39.5508Q32.0312-41.0645 33.6914-42.041ZM55.0293-36.0352Q55.0293-37.5977 56.0791-38.6719Q57.1289-39.7461 58.6426-39.7461L77.6855-39.7461Q79.248-39.7461 80.2979-38.6719Q81.3477-37.5977 81.3477-36.0352Q81.3477-34.5215 80.2979-33.4473Q79.248-32.373 77.6855-32.373L58.6426-32.373Q57.1289-32.373 56.0791-33.4473Q55.0293-34.5215 55.0293-36.0352ZM28.4668 10.3516L112.061 10.3516Q120.02 10.3516 124.048 6.34766Q128.076 2.34375 128.076-5.46875L128.076-64.9414Q128.076-72.7539 124.048-76.7822Q120.02-80.8105 112.061-80.8105L28.4668-80.8105Q20.5566-80.8105 16.5039-76.7822Q12.4512-72.7539 12.4512-64.9414L12.4512-5.46875Q12.4512 2.34375 16.5039 6.34766Q20.5566 10.3516 28.4668 10.3516Z"/>
  </g>
  <g id="Regular-M" transform="matrix(1 0 0 1 1379.82 1126)">
   <path d="M32.7637-42.2363L44.873-49.6094L32.7637-56.8848Q31.2988-57.7637 31.0547-59.1309Q30.8105-60.498 31.5186-61.6455Q32.2266-62.793 33.5449-63.1836Q34.8633-63.5742 36.5234-62.5488L50.9766-53.5156Q52.3438-52.6367 52.832-51.123Q53.3203-49.6094 52.8809-48.0957Q52.4414-46.582 50.9766-45.6543L36.5234-36.5723Q34.8633-35.5469 33.5449-35.9375Q32.2266-36.3281 31.5186-37.5Q30.8105-38.6719 31.0547-40.0146Q31.2988-41.3574 32.7637-42.2363ZM54.0039-36.6699Q54.0039-38.0371 54.9316-38.9893Q55.8594-39.9414 57.2266-39.9414L76.416-39.9414Q77.7832-39.9414 78.7354-38.9893Q79.6875-38.0371 79.6875-36.6699Q79.6875-35.3027 78.7354-34.3506Q77.7832-33.3984 76.416-33.3984L57.2266-33.3984Q55.8594-33.3984 54.9316-34.3506Q54.0039-35.3027 54.0039-36.6699ZM27.7832 9.7168L112.256 9.7168Q119.971 9.7168 123.779 5.93262Q127.588 2.14844 127.588-5.37109L127.588-65.0391Q127.588-72.5586 123.779-76.3672Q119.971-80.1758 112.256-80.1758L27.7832-80.1758Q20.1172-80.1758 16.2842-76.3916Q12.4512-72.6074 12.4512-65.0391L12.4512-5.37109Q12.4512 2.14844 16.2842 5.93262Q20.1172 9.7168 27.7832 9.7168Z"/>
  </g>
  <g id="Light-M" transform="matrix(1 0 0 1 1083.5 1126)">
   <path d="M32.2754-42.4805L45.1172-50.293L32.2754-58.0078Q31.0547-58.7402 30.8594-59.8145Q30.6641-60.8887 31.2256-61.792Q31.7871-62.6953 32.8369-63.0127Q33.8867-63.3301 35.2051-62.5488L49.8047-53.418Q50.8789-52.7344 51.2695-51.5137Q51.6602-50.293 51.3184-49.0723Q50.9766-47.8516 49.8047-47.1191L35.2051-37.9883Q33.8867-37.1582 32.8369-37.4756Q31.7871-37.793 31.25-38.7207Q30.7129-39.6484 30.8838-40.7227Q31.0547-41.7969 32.2754-42.4805ZM52.6855-37.5Q52.6855-38.5742 53.418-39.3066Q54.1504-40.0391 55.2246-40.0391L74.2188-40.0391Q75.293-40.0391 76.0498-39.3066Q76.8066-38.5742 76.8066-37.5Q76.8066-36.377 76.0498-35.6445Q75.293-34.9121 74.2188-34.9121L55.2246-34.9121Q54.1504-34.9121 53.418-35.6445Q52.6855-36.377 52.6855-37.5ZM26.8555 8.98438L112.402 8.98438Q119.58 8.98438 123.193 5.37109Q126.807 1.75781 126.807-5.27344L126.807-65.1855Q126.807-72.2168 123.193-75.8301Q119.58-79.4434 112.402-79.4434L26.8555-79.4434Q19.6777-79.4434 16.0645-75.8545Q12.4512-72.2656 12.4512-65.1855L12.4512-5.27344Q12.4512 1.80664 16.0645 5.39551Q19.6777 8.98438 26.8555 8.98438Z"/>
  </g>
  <g id="Thin-M" transform="matrix(1 0 0 1 787.306 1126)">
   <path d="M31.5918-42.8223L45.4102-51.1719L31.5918-59.4727Q30.7129-60.0098 30.5908-60.7178Q30.4688-61.4258 30.8594-62.0117Q31.25-62.5977 31.958-62.793Q32.666-62.9883 33.4473-62.5L48.1934-53.2715Q48.9258-52.832 49.2188-52.002Q49.5117-51.1719 49.2676-50.3418Q49.0234-49.5117 48.1934-49.0723L33.4473-39.7949Q32.666-39.3066 31.958-39.5264Q31.25-39.7461 30.8838-40.332Q30.5176-40.918 30.6396-41.626Q30.7617-42.334 31.5918-42.8223ZM50.9277-38.5742Q50.9277-39.3066 51.3916-39.7705Q51.8555-40.2344 52.5879-40.2344L71.2891-40.2344Q72.0215-40.2344 72.4854-39.7705Q72.9492-39.3066 72.9492-38.5742Q72.9492-37.8418 72.4854-37.3535Q72.0215-36.8652 71.2891-36.8652L52.5879-36.8652Q51.8555-36.8652 51.3916-37.3535Q50.9277-37.8418 50.9277-38.5742ZM25.5859 7.95898L112.549 7.95898Q119.092 7.95898 122.437 4.58984Q125.781 1.2207 125.781-5.17578L125.781-65.332Q125.781-71.7285 122.437-75.0977Q119.092-78.4668 112.549-78.4668L25.5859-78.4668Q19.1406-78.4668 15.7959-75.1221Q12.4512-71.7773 12.4512-65.332L12.4512-5.17578Q12.4512 1.31836 15.7959 4.63867Q19.1406 7.95898 25.5859 7.95898Z"/>
  </g>
  <g id="Ultralight-M" transform="matrix(1 0 0 1 490.863 1126)">
   <path d="M31.25-43.0176L45.5566-51.6113L31.25-60.2539Q30.5664-60.6934 30.4688-61.2061Q30.3711-61.7188 30.6641-62.1338Q30.957-62.5488 31.4697-62.6953Q31.9824-62.8418 32.5684-62.5L47.4121-53.1738Q47.9492-52.8809 48.1689-52.2705Q48.3887-51.6602 48.2178-51.0254Q48.0469-50.3906 47.4121-50.0488L32.5684-40.7715Q31.9824-40.4297 31.4697-40.5762Q30.957-40.7227 30.7129-41.1621Q30.4688-41.6016 30.542-42.1143Q30.6152-42.627 31.25-43.0176ZM50-39.1113Q50-39.6484 50.3418-39.9658Q50.6836-40.2832 51.2207-40.2832L69.7754-40.2832Q70.3125-40.2832 70.6543-39.9658Q70.9961-39.6484 70.9961-39.1113Q70.9961-38.5742 70.6543-38.2324Q70.3125-37.8906 69.7754-37.8906L51.2207-37.8906Q50.6836-37.8906 50.3418-38.2324Q50-38.5742 50-39.1113ZM24.9512 7.4707L112.646 7.4707Q118.848 7.4707 122.046 4.22363Q125.244 0.976562 125.244-5.07812L125.244-65.4297Q125.244-71.4844 122.046-74.7314Q118.848-77.9785 112.646-77.9785L24.9512-77.9785Q18.8477-77.9785 15.6494-74.7803Q12.4512-71.582 12.4512-65.4297L12.4512-5.07812Q12.4512 1.07422 15.6494 4.27246Q18.8477 7.4707 24.9512 7.4707Z"/>
  </g>
  <g id="Black-S" transform="matrix(1 0 0 1 2877.35 696)">
   <path d="M30.0781-39.7949L36.2793-43.5547L30.0293-47.3633Q28.0762-48.5352 27.8076-50.293Q27.5391-52.0508 28.4668-53.6133Q29.3945-55.1758 31.1279-55.6885Q32.8613-56.2012 34.9609-54.8828L45.6055-48.2422Q47.3145-47.2168 47.876-45.4102Q48.4375-43.6035 47.876-41.7969Q47.3145-39.9902 45.6055-38.916L34.9609-32.1777Q32.8613-30.8594 31.1279-31.3965Q29.3945-31.9336 28.4668-33.4717Q27.5391-35.0098 27.832-36.8164Q28.125-38.623 30.0781-39.7949ZM47.0703-33.4961Q47.0703-35.3516 48.3887-36.6211Q49.707-37.8906 51.5137-37.8906L65.8203-37.8906Q67.6758-37.8906 68.9453-36.6211Q70.2148-35.3516 70.2148-33.4961Q70.2148-31.6895 68.9453-30.3711Q67.6758-29.0527 65.8203-29.0527L51.5137-29.0527Q49.6582-29.0527 48.3643-30.3711Q47.0703-31.6895 47.0703-33.4961ZM25 2.92969L87.1094 2.92969Q94.2871 2.92969 98.3154-1.09863Q102.344-5.12695 102.344-12.3047L102.344-58.1055Q102.344-65.2832 98.3154-69.3115Q94.2871-73.3398 87.1094-73.3398L25-73.3398Q17.8223-73.3398 13.7939-69.3115Q9.76562-65.2832 9.76562-58.1055L9.76562-12.3047Q9.76562-5.12695 13.7939-1.09863Q17.8223 2.92969 25 2.92969Z"/>
  </g>
  <g id="Heavy-S" transform="matrix(1 0 0 1 2580.88 696)">
   <path d="M29.1016-39.9902L35.9863-44.1895L29.0527-48.3887Q27.2461-49.4629 27.002-51.0742Q26.7578-52.6855 27.6123-54.126Q28.4668-55.5664 30.0537-56.0547Q31.6406-56.543 33.5938-55.2734L44.3848-48.584Q45.9961-47.6074 46.5332-45.8984Q47.0703-44.1895 46.5332-42.5049Q45.9961-40.8203 44.3848-39.7949L33.5938-33.0078Q31.6406-31.7871 30.0537-32.2754Q28.4668-32.7637 27.6123-34.1797Q26.7578-35.5957 27.0264-37.2559Q27.2949-38.916 29.1016-39.9902ZM46.0938-34.082Q46.0938-35.791 47.29-36.9385Q48.4863-38.0859 50.1953-38.0859L64.6484-38.0859Q66.3574-38.0859 67.5293-36.9385Q68.7012-35.791 68.7012-34.082Q68.7012-32.4219 67.5293-31.2012Q66.3574-29.9805 64.6484-29.9805L50.1953-29.9805Q48.4863-29.9805 47.29-31.2012Q46.0938-32.4219 46.0938-34.082ZM24.3652 2.34375L87.3047 2.34375Q94.2871 2.34375 98.0713-1.46484Q101.855-5.27344 101.855-12.207L101.855-58.2031Q101.855-65.1367 98.0713-68.9453Q94.2871-72.7539 87.3047-72.7539L24.3652-72.7539Q17.3828-72.7539 13.5742-68.9453Q9.76562-65.1367 9.76562-58.2031L9.76562-12.207Q9.76562-5.27344 13.5742-1.46484Q17.3828 2.34375 24.3652 2.34375Z"/>
  </g>
  <g id="Bold-S" transform="matrix(1 0 0 1 2284.41 696)">
   <path d="M28.0273-40.2344L35.6934-44.873L27.9785-49.5117Q26.3672-50.4883 26.123-51.9775Q25.8789-53.4668 26.6602-54.7607Q27.4414-56.0547 28.8818-56.4697Q30.3223-56.8848 32.1289-55.7617L43.0664-48.9258Q44.5312-48.0469 45.0195-46.46Q45.5078-44.873 45.0439-43.3105Q44.5801-41.748 43.0664-40.8203L32.1289-33.8867Q30.3223-32.8125 28.8818-33.252Q27.4414-33.6914 26.6602-34.9609Q25.8789-36.2305 26.1475-37.7441Q26.416-39.2578 28.0273-40.2344ZM45.0195-34.7656Q45.0195-36.2793 46.0938-37.3291Q47.168-38.3789 48.6816-38.3789L63.3789-38.3789Q64.9414-38.3789 65.9912-37.3291Q67.041-36.2793 67.041-34.7656Q67.041-33.252 65.9912-32.1533Q64.9414-31.0547 63.3789-31.0547L48.6816-31.0547Q47.168-31.0547 46.0938-32.1533Q45.0195-33.252 45.0195-34.7656ZM23.6328 1.66016L87.5 1.66016Q94.2383 1.66016 97.8027-1.9043Q101.367-5.46875 101.367-12.1094L101.367-58.3008Q101.367-64.9902 97.8027-68.5303Q94.2383-72.0703 87.5-72.0703L23.6328-72.0703Q16.9434-72.0703 13.3545-68.5303Q9.76562-64.9902 9.76562-58.3008L9.76562-12.1094Q9.76562-5.46875 13.3545-1.9043Q16.9434 1.66016 23.6328 1.66016Z"/>
  </g>
  <g id="Semibold-S" transform="matrix(1 0 0 1 1987.9 696)">
   <path d="M27.2461-40.3809L35.4492-45.3125L27.2461-50.293Q25.7324-51.2207 25.5127-52.5879Q25.293-53.9551 26.001-55.1514Q26.709-56.3477 28.0518-56.7383Q29.3945-57.1289 31.0547-56.1035L42.1387-49.1699Q43.5059-48.3398 43.9697-46.8262Q44.4336-45.3125 43.9941-43.8477Q43.5547-42.3828 42.1387-41.5039L31.0547-34.5215Q29.3945-33.4961 28.0518-33.8867Q26.709-34.2773 26.001-35.4736Q25.293-36.6699 25.5371-38.0615Q25.7812-39.4531 27.2461-40.3809ZM44.2871-35.2051Q44.2871-36.5723 45.2637-37.5488Q46.2402-38.5254 47.6562-38.5254L62.5-38.5254Q63.916-38.5254 64.8926-37.5488Q65.8691-36.5723 65.8691-35.2051Q65.8691-33.7891 64.8926-32.7881Q63.916-31.7871 62.5-31.7871L47.6562-31.7871Q46.2402-31.7871 45.2637-32.7881Q44.2871-33.7891 44.2871-35.2051ZM23.0957 1.2207L87.6465 1.2207Q94.2383 1.2207 97.6074-2.17285Q100.977-5.56641 100.977-12.0605L100.977-58.3496Q100.977-64.8438 97.6074-68.2373Q94.2383-71.6309 87.6465-71.6309L23.0957-71.6309Q16.6016-71.6309 13.1836-68.2373Q9.76562-64.8438 9.76562-58.3496L9.76562-12.0605Q9.76562-5.56641 13.1836-2.17285Q16.6016 1.2207 23.0957 1.2207Z"/>
  </g>
  <g id="Medium-S" transform="matrix(1 0 0 1 1691.33 696)">
   <path d="M26.6602-40.4785L35.2539-45.6543L26.6602-50.8789Q25.293-51.7578 25.0488-53.0518Q24.8047-54.3457 25.4883-55.4688Q26.1719-56.5918 27.4414-56.958Q28.7109-57.3242 30.2734-56.3477L41.4551-49.3652Q42.7734-48.5352 43.2129-47.1191Q43.6523-45.7031 43.2129-44.2871Q42.7734-42.8711 41.4551-42.041L30.2734-34.9609Q28.7109-34.0332 27.4414-34.3994Q26.1719-34.7656 25.4883-35.8887Q24.8047-37.0117 25.0488-38.3301Q25.293-39.6484 26.6602-40.4785ZM43.7012-35.5469Q43.7012-36.8164 44.6289-37.7441Q45.5566-38.6719 46.875-38.6719L61.8164-38.6719Q63.1348-38.6719 64.0625-37.7441Q64.9902-36.8164 64.9902-35.5469Q64.9902-34.2285 64.0625-33.2764Q63.1348-32.3242 61.8164-32.3242L46.875-32.3242Q45.5566-32.3242 44.6289-33.2764Q43.7012-34.2285 43.7012-35.5469ZM22.7051 0.830078L87.7441 0.830078Q94.1895 0.830078 97.4365-2.41699Q100.684-5.66406 100.684-11.9629L100.684-58.4473Q100.684-64.7461 97.4365-67.9932Q94.1895-71.2402 87.7441-71.2402L22.7051-71.2402Q16.3574-71.2402 13.0615-67.9932Q9.76562-64.7461 9.76562-58.4473L9.76562-11.9629Q9.76562-5.66406 13.0615-2.41699Q16.3574 0.830078 22.7051 0.830078Z"/>
  </g>
  <g id="Regular-S" transform="matrix(1 0 0 1 1394.79 696)">
   <path d="M25.9277-40.625L35.0586-46.1426L25.9277-51.6602Q24.6582-52.4414 24.4385-53.6377Q24.2188-54.834 24.8291-55.8594Q25.4395-56.8848 26.6113-57.2266Q27.7832-57.5684 29.248-56.6406L40.5273-49.6094Q41.748-48.8281 42.1631-47.4854Q42.5781-46.1426 42.1875-44.8242Q41.7969-43.5059 40.5273-42.7246L29.248-35.5957Q27.7832-34.7168 26.6113-35.0586Q25.4395-35.4004 24.8291-36.4258Q24.2188-37.4512 24.4385-38.6475Q24.6582-39.8438 25.9277-40.625ZM42.9688-35.9863Q42.9688-37.1582 43.7988-37.9883Q44.6289-38.8184 45.8496-38.8184L60.9375-38.8184Q62.1582-38.8184 63.0127-37.9883Q63.8672-37.1582 63.8672-35.9863Q63.8672-34.7656 63.0127-33.9111Q62.1582-33.0566 60.9375-33.0566L45.8496-33.0566Q44.6289-33.0566 43.7988-33.9111Q42.9688-34.7656 42.9688-35.9863ZM22.2168 0.390625L87.8906 0.390625Q94.1895 0.390625 97.2656-2.68555Q100.342-5.76172 100.342-11.9141L100.342-58.4961Q100.342-64.6484 97.2656-67.7246Q94.1895-70.8008 87.8906-70.8008L22.2168-70.8008Q16.0156-70.8008 12.8906-67.7246Q9.76562-64.6484 9.76562-58.4961L9.76562-11.9141Q9.76562-5.76172 12.8906-2.68555Q16.0156 0.390625 22.2168 0.390625Z"/>
  </g>
  <g id="Light-S" transform="matrix(1 0 0 1 1098.42 696)">
   <path d="M25.4883-40.8203L35.2539-46.7285L25.4883-52.6367Q24.4629-53.2715 24.292-54.2236Q24.1211-55.1758 24.6094-55.9814Q25.0977-56.7871 26.0254-57.0801Q26.9531-57.373 28.0762-56.6406L39.4531-49.5117Q40.4297-48.9258 40.7715-47.8271Q41.1133-46.7285 40.7959-45.6787Q40.4785-44.6289 39.4531-43.9941L28.0762-36.8164Q26.9531-36.1328 26.0254-36.4014Q25.0977-36.6699 24.6094-37.5Q24.1211-38.3301 24.292-39.2822Q24.4629-40.2344 25.4883-40.8203ZM41.7969-36.7188Q41.7969-37.6465 42.4561-38.2812Q43.1152-38.916 44.043-38.916L58.9844-38.916Q59.9609-38.916 60.6201-38.2812Q61.2793-37.6465 61.2793-36.7188Q61.2793-35.7422 60.6201-35.0586Q59.9609-34.375 58.9844-34.375L44.043-34.375Q43.1152-34.375 42.4561-35.0586Q41.7969-35.7422 41.7969-36.7188ZM21.3867-0.292969L87.9883-0.292969Q93.8477-0.292969 96.7529-3.19824Q99.6582-6.10352 99.6582-11.8164L99.6582-58.5938Q99.6582-64.3066 96.7529-67.2363Q93.8477-70.166 87.9883-70.166L21.3867-70.166Q15.625-70.166 12.6953-67.2607Q9.76562-64.3555 9.76562-58.5938L9.76562-11.8164Q9.76562-6.10352 12.6953-3.19824Q15.625-0.292969 21.3867-0.292969Z"/>
  </g>
  <g id="Thin-S" transform="matrix(1 0 0 1 802.174 696)">
   <path d="M24.8535-41.1133L35.498-47.5586L24.8535-53.9551Q24.1699-54.3945 24.0479-55.0293Q23.9258-55.6641 24.2676-56.1768Q24.6094-56.6895 25.2197-56.8848Q25.8301-57.0801 26.5625-56.5918L38.0859-49.4141Q38.7207-49.0234 38.9648-48.291Q39.209-47.5586 38.9893-46.8506Q38.7695-46.1426 38.0859-45.7031L26.5625-38.4766Q25.8301-38.0371 25.2197-38.208Q24.6094-38.3789 24.2676-38.916Q23.9258-39.4531 24.0723-40.0879Q24.2188-40.7227 24.8535-41.1133ZM40.2344-37.6465Q40.2344-38.2812 40.6494-38.6963Q41.0645-39.1113 41.6992-39.1113L56.3965-39.1113Q57.0801-39.1113 57.4951-38.6963Q57.9102-38.2812 57.9102-37.6465Q57.9102-36.9629 57.4951-36.5479Q57.0801-36.1328 56.3965-36.1328L41.6992-36.1328Q41.0645-36.1328 40.6494-36.5479Q40.2344-36.9629 40.2344-37.6465ZM20.3125-1.17188L88.1836-1.17188Q93.4082-1.17188 96.0693-3.88184Q98.7305-6.5918 98.7305-11.7188L98.7305-58.7891Q98.7305-63.916 96.0693-66.6016Q93.4082-69.2871 88.1836-69.2871L20.3125-69.2871Q15.0879-69.2871 12.4268-66.626Q9.76562-63.9648 9.76562-58.7891L9.76562-11.7188Q9.76562-6.49414 12.4268-3.83301Q15.0879-1.17188 20.3125-1.17188Z"/>
  </g>
  <g id="Ultralight-S" transform="matrix(1 0 0 1 505.707 696)">
   <path d="M24.5605-41.2598L35.6445-47.9492L24.5605-54.5898Q24.0234-54.9805 23.9502-55.4443Q23.877-55.9082 24.1211-56.2744Q24.3652-56.6406 24.8047-56.7871Q25.2441-56.9336 25.7324-56.5918L37.3535-49.3164Q37.8418-49.0723 38.0371-48.5107Q38.2324-47.9492 38.0615-47.4365Q37.8906-46.9238 37.3535-46.582L25.7324-39.3066Q25.2441-38.9648 24.8047-39.1113Q24.3652-39.2578 24.1211-39.6484Q23.877-40.0391 23.9746-40.5029Q24.0723-40.9668 24.5605-41.2598ZM39.4043-38.1348Q39.4043-38.623 39.7217-38.8916Q40.0391-39.1602 40.4785-39.1602L55.0781-39.1602Q55.5664-39.1602 55.8594-38.8916Q56.1523-38.623 56.1523-38.1348Q56.1523-37.6465 55.8594-37.3535Q55.5664-37.0605 55.0781-37.0605L40.4785-37.0605Q40.0391-37.0605 39.7217-37.3535Q39.4043-37.6465 39.4043-38.1348ZM19.7754-1.66016L88.2324-1.66016Q93.2129-1.66016 95.7275-4.22363Q98.2422-6.78711 98.2422-11.6211L98.2422-58.8379Q98.2422-63.6719 95.7275-66.2598Q93.2129-68.8477 88.2324-68.8477L19.7754-68.8477Q14.8438-68.8477 12.3047-66.3086Q9.76562-63.7695 9.76562-58.8379L9.76562-11.6211Q9.76562-6.73828 12.3047-4.19922Q14.8438-1.66016 19.7754-1.66016Z"/>
  </g>
 </g>
</svg>
